P3
80 60
255
0 0 0
0 0 0
0 0 0
0 0 0
0 0 0
0 0 0
0 0 0
0 0 0
0 0 0
0 0 0
0 0 0
0 0 0
0 0 0
0 0 0
0 0 0
0 0 0
0 0 0
0 0 0
0 0 0
0 0 0
0 0 0
0 0 0
0 0 0
0 0 0
0 0 0
0 0 0
0 0 0
0 0 0
0 0 0
0 0 0
0 0 0
0 0 0
0 0 0
0 0 0
0 0 0
0 0 0
0 0 0
0 0 0
0 0 0
0 0 0
0 0 0
0 0 0
0 0 0
0 0 0
0 0 0
0 0 0
0 0 0
0 0 0
0 0 0
0 0 0
0 0 0
0 0 0
0 0 0
0 0 0
0 0 0
0 0 0
0 0 0
0 0 0
0 0 0
0 0 0
0 0 0
0 0 0
0 0 0
0 0 0
0 0 0
0 0 0
0 0 0
0 0 0
0 0 0
0 0 0
0 0 0
0 0 0
0 0 0
0 0 0
0 0 0
0 0 0
0 0 0
0 0 0
0 0 0
0 0 0
0 0 0
0 0 0
0 0 0
0 0 0
0 0 0
0 0 0
0 0 0
0 0 0
0 0 0
0 0 0
0 0 0
0 0 0
0 0 0
0 0 0
0 0 0
0 0 0
0 0 0
0 0 0
0 0 0
0 0 0
0 0 0
0 0 0
0 0 0
0 0 0
0 0 0
0 0 0
0 0 0
0 0 0
0 0 0
0 0 0
0 0 0
0 0 0
0 0 0
0 0 0
0 0 0
0 0 0
64 32 64
128 32 64
96 32 64
64 32 64
128 32 64
160 64 128
128 64 64
160 64 128
0 0 0
0 0 0
0 0 0
0 0 0
0 0 0
0 0 0
0 0 0
0 0 0
0 0 0
0 0 0
0 0 0
0 0 0
0 0 0
0 0 0
0 0 0
0 0 0
0 0 0
0 0 0
0 0 0
0 0 0
0 0 0
0 0 0
0 0 0
0 0 0
0 0 0
0 0 0
0 0 0
0 0 0
0 0 0
0 0 0
0 0 0
0 0 0
0 0 0
0 0 0
0 0 64
0 0 64
0 0 0
0 0 0
0 0 0
0 0 0
0 0 0
0 0 0
0 0 0
0 0 0
0 0 0
0 0 0
0 0 0
0 0 0
0 0 0
0 0 0
0 0 0
0 0 0
0 0 0
0 0 0
0 0 0
0 0 0
0 0 0
0 0 0
0 0 0
0 0 0
0 0 0
0 0 0
0 0 0
0 0 0
0 0 0
0 0 0
0 0 0
0 0 0
0 0 0
32 0 0
64 32 64
96 32 64
128 32 64
96 32 64
128 32 64
128 64 64
128 64 64
128 64 64
160 64 128
128 64 64
160 64 128
128 64 64
192 64 128
0 0 0
0 0 0
0 0 0
0 0 0
0 0 0
0 0 0
0 0 0
0 0 0
0 0 0
0 0 0
0 0 0
0 0 0
0 0 0
0 0 0
0 0 0
0 0 0
0 0 0
0 0 0
0 0 0
0 0 0
0 0 0
0 0 0
0 0 0
0 0 0
0 0 0
0 0 0
0 0 0
0 0 0
0 0 64
0 0 64
0 0 64
0 0 64
0 0 64
0 0 0
0 0 0
0 0 0
0 0 0
0 0 0
0 0 0
0 0 0
0 0 0
0 0 0
0 0 0
0 0 0
0 0 0
0 0 0
0 0 0
0 0 0
0 0 0
0 0 0
0 0 0
0 0 0
0 0 0
0 0 0
0 0 0
0 0 0
0 0 0
0 0 0
0 0 0
0 0 0
0 0 0
0 0 0
0 0 0
0 0 0
32 0 0
64 32 64
32 0 0
64 32 64
96 32 64
64 32 64
96 32 64
128 64 64
96 32 64
96 32 64
128 64 64
128 64 64
160 64 128
192 96 128
192 96 128
160 64 128
160 64 128
192 96 128
0 0 0
0 0 0
0 0 0
0 0 0
0 0 0
0 0 0
0 0 0
0 0 0
0 0 0
0 0 0
0 0 0
0 0 0
0 0 0
0 0 0
0 0 0
0 0 0
0 0 0
0 0 0
0 0 0
0 0 0
0 0 0
0 0 0
0 0 0
0 0 0
0 0 64
0 0 64
0 0 64
0 0 64
0 0 64
0 0 64
0 0 64
0 0 0
0 0 0
0 0 0
0 0 0
0 0 0
0 0 0
0 0 0
0 0 0
0 0 0
0 0 0
0 0 0
0 0 0
0 0 0
0 0 0
0 0 0
0 0 0
0 0 0
0 0 0
0 0 0
0 0 0
0 0 0
0 0 0
0 0 0
0 0 0
0 0 0
0 0 0
0 0 0
0 0 0
0 0 0
0 0 0
32 0 0
64 0 0
32 0 0
64 32 0
64 0 0
128 32 64
128 32 64
128 32 64
128 64 64
128 64 64
160 64 128
128 32 64
192 96 128
160 64 128
160 64 128
192 96 128
160 64 128
160 64 128
192 96 128
192 96 128
0 0 0
0 0 0
0 0 0
0 0 0
0 0 0
0 0 0
0 0 0
0 0 0
0 0 0
0 0 0
0 0 0
0 0 0
0 0 0
0 0 0
0 0 0
0 0 0
0 0 0
0 0 0
0 0 0
0 0 0
0 0 0
0 0 64
0 0 64
0 0 64
0 0 64
0 0 64
0 0 64
0 0 64
0 0 64
0 0 64
0 0 0
0 0 0
0 0 0
0 0 0
0 0 0
0 0 0
0 0 0
0 0 0
0 0 0
0 0 0
0 0 0
0 0 0
0 0 0
0 0 0
0 0 0
0 0 0
0 0 0
0 0 0
0 0 0
0 0 0
0 0 0
0 0 0
0 0 0
0 0 0
0 0 0
0 0 0
0 0 0
0 0 0
0 0 0
32 0 0
32 0 0
64 32 0
32 0 0
96 32 64
64 32 64
96 32 64
64 32 64
128 64 64
128 64 64
96 32 64
128 64 64
128 64 64
160 64 128
128 64 64
192 96 128
192 64 128
192 96 128
192 64 128
192 96 128
160 64 128
160 64 128
0 0 0
0 0 0
0 0 0
0 0 0
0 0 0
0 0 0
0 0 0
0 0 0
0 0 0
0 0 0
0 0 0
0 0 0
0 0 0
0 0 0
0 0 0
0 0 0
0 0 0
0 0 0
0 0 0
0 0 0
0 0 64
0 0 64
0 0 64
0 0 64
0 0 64
0 0 64
0 0 64
0 0 64
96 96 192
0 0 0
0 0 0
0 0 0
0 0 0
0 0 0
0 0 0
0 0 0
0 0 0
0 0 0
0 0 0
0 0 0
0 0 0
0 0 0
0 0 0
0 0 0
0 0 0
0 0 0
0 0 0
0 0 0
0 0 0
0 0 0
0 0 0
0 0 0
0 0 0
0 0 0
0 0 0
0 0 0
0 0 0
32 0 0
32 0 0
64 32 0
64 32 0
64 32 0
64 32 64
64 32 64
64 32 64
96 32 64
128 64 64
128 64 64
128 64 64
128 64 64
160 64 128
128 64 64
192 96 128
192 64 128
160 64 128
192 96 128
192 96 128
0 96 192
224 96 128
192 96 128
224 96 192
0 0 0
0 0 0
0 0 0
0 0 0
0 0 0
0 0 0
0 0 0
0 0 0
0 0 0
0 0 0
0 0 0
0 0 0
0 0 0
0 0 0
0 0 0
0 0 0
0 0 0
0 0 0
0 0 0
0 0 0
0 0 0
0 0 64
0 0 64
0 0 64
0 0 64
0 0 64
0 0 64
64 64 128
0 0 0
0 0 0
0 0 0
0 0 0
0 0 0
0 0 0
0 0 0
0 0 0
0 0 0
0 0 0
0 0 0
0 0 0
0 0 0
0 0 0
0 0 0
0 0 0
0 0 0
0 0 0
0 0 0
0 0 0
0 0 0
0 0 0
0 0 0
0 0 0
0 0 0
0 0 0
0 0 0
0 0 0
32 0 0
0 0 0
32 0 0
96 32 64
64 32 64
64 0 0
64 32 64
96 32 64
64 32 64
96 32 64
160 64 128
128 64 64
160 64 128
160 64 128
160 64 128
192 64 128
160 64 128
192 96 128
160 64 128
192 64 128
224 96 128
224 96 128
224 96 128
224 96 192
192 64 128
0 0 0
0 0 0
0 0 0
0 0 0
0 0 0
0 0 0
0 0 0
0 0 0
0 0 0
0 0 0
0 0 0
0 0 0
0 0 0
0 0 0
0 0 0
0 0 0
0 0 64
0 0 0
0 0 0
0 0 64
0 0 64
0 0 64
0 0 64
0 0 64
0 0 64
64 64 128
96 96 128
0 0 0
0 0 0
0 0 0
0 0 0
0 0 0
0 0 0
0 0 0
0 0 0
0 0 0
0 0 0
0 0 0
0 0 0
0 0 0
0 0 0
0 0 0
0 0 0
0 0 0
0 0 0
0 0 0
0 0 0
0 0 0
0 0 0
0 0 0
0 0 0
0 0 0
0 0 0
32 0 0
32 0 0
32 0 0
64 32 0
64 32 0
96 32 64
32 0 0
64 32 64
64 32 64
128 32 64
96 32 64
96 32 64
128 32 64
192 64 128
160 64 128
160 64 128
160 64 128
192 64 128
160 64 128
192 64 128
192 96 128
192 96 128
224 96 128
224 96 128
224 96 128
0 96 192
224 96 128
224 96 128
0 0 0
0 0 0
0 0 0
0 0 0
0 0 0
0 0 0
0 0 0
0 0 0
0 0 0
0 0 0
0 0 0
0 0 0
0 0 0
0 0 0
0 0 0
0 0 64
0 0 64
0 0 64
0 0 64
0 0 64
0 0 64
0 0 64
0 0 64
0 0 64
96 96 128
96 96 128
0 0 0
96 64 0
96 64 0
64 64 0
96 64 0
96 96 0
96 64 0
0 0 0
0 0 0
0 0 0
0 0 0
0 0 0
0 0 0
0 0 0
0 0 0
0 0 0
0 0 0
0 0 0
0 0 0
0 0 0
0 0 0
0 0 0
0 0 0
0 0 0
0 0 0
0 0 0
0 0 0
32 0 0
32 0 0
32 0 0
32 0 0
64 0 0
32 0 0
96 32 64
96 32 64
64 32 0
96 32 64
128 64 64
128 64 64
128 64 64
128 64 64
128 64 64
160 64 128
128 64 64
192 96 128
160 64 128
192 96 128
192 96 128
192 64 128
224 96 128
224 96 128
224 96 128
224 96 128
224 96 128
0 0 0
0 0 0
0 0 0
0 0 0
0 0 0
0 0 0
0 0 0
0 0 0
0 0 0
0 0 0
0 0 0
0 0 0
0 0 0
0 0 0
0 0 0
0 0 0
0 0 0
0 0 0
0 0 64
0 0 64
0 0 64
0 0 64
0 0 64
0 0 64
64 64 128
96 96 128
96 64 0
96 64 0
96 64 0
96 64 0
64 64 0
96 64 0
64 64 0
96 64 0
0 0 0
0 0 0
0 0 0
0 0 0
0 0 0
0 0 0
0 0 0
0 0 0
0 0 0
0 0 0
0 0 0
0 0 0
0 0 0
0 0 0
0 0 0
0 0 0
0 0 0
32 0 0
32 0 0
32 0 0
32 0 0
32 0 0
64 0 0
64 32 0
96 32 64
64 32 0
96 32 64
96 32 64
128 64 64
128 64 64
96 32 64
128 64 64
160 64 128
160 64 64
160 64 128
224 96 128
160 64 128
160 64 128
160 64 128
192 96 128
192 96 128
192 96 128
0 96 192
224 96 192
224 96 192
224 96 128
192 96 128
0 0 0
0 0 0
0 0 0
0 0 0
0 0 0
0 0 0
0 0 0
0 0 0
0 0 0
0 0 0
0 0 0
0 0 0
0 0 0
0 0 64
0 0 64
0 0 64
0 0 64
0 0 64
0 0 64
0 0 64
0 0 64
0 0 64
0 0 64
0 0 64
64 64 128
96 64 0
64 64 0
96 64 0
64 64 0
64 64 0
96 64 0
96 96 0
64 64 0
96 96 0
0 0 0
0 0 0
0 0 0
0 0 0
0 0 0
0 0 0
0 0 0
0 0 0
0 0 0
0 0 0
0 0 0
0 0 0
0 0 0
0 0 0
0 0 0
0 0 0
32 0 0
32 0 0
32 0 0
64 0 0
64 0 0
64 32 0
64 32 64
32 0 0
64 32 0
128 64 64
128 32 64
128 32 64
128 64 64
128 64 64
96 32 64
128 64 64
192 64 128
160 64 128
192 64 128
160 64 128
192 96 128
192 64 128
192 64 128
224 96 128
224 96 128
224 96 128
224 96 128
224 96 128
0 96 192
192 96 128
0 0 0
0 0 0
0 0 0
0 0 0
0 0 0
0 0 0
0 0 0
0 0 0
0 0 0
0 0 0
0 0 0
0 0 0
0 0 0
0 0 0
0 0 0
0 0 0
0 0 64
0 0 64
0 0 64
0 0 64
0 0 64
0 0 64
0 0 64
0 0 64
96 96 128
64 64 0
96 64 0
96 64 0
64 64 0
96 64 0
96 64 0
96 64 0
96 64 0
96 64 0
64 64 0
0 0 0
0 0 0
0 0 0
0 0 0
0 0 0
0 0 0
0 0 0
0 0 0
0 0 0
0 0 0
0 0 0
0 0 0
0 0 0
0 0 0
32 0 0
32 0 0
32 0 0
32 0 0
32 0 0
32 0 0
64 32 0
64 32 0
64 32 0
96 32 64
96 32 64
96 32 64
128 64 64
128 64 64
128 32 64
128 32 64
128 32 64
128 64 64
128 64 64
192 64 128
160 64 128
160 64 128
192 64 128
192 96 128
224 96 128
192 96 128
224 96 128
224 96 128
224 96 128
224 96 128
224 96 192
128 64 128
0 0 0
0 0 0
0 0 0
0 0 0
0 0 0
0 0 0
0 0 0
0 0 0
0 0 0
0 0 0
0 0 0
0 0 0
0 0 64
0 0 64
0 0 64
0 0 64
0 0 64
0 0 64
32 32 128
0 0 64
32 0 128
0 0 64
0 0 64
32 0 128
64 64 0
96 64 0
96 64 0
64 64 0
96 64 0
96 64 0
96 64 0
96 64 0
96 64 0
64 64 0
32 0 0
0 0 0
0 0 0
0 0 0
0 0 0
0 0 0
0 0 0
0 0 0
0 0 0
0 0 0
0 0 0
0 0 0
0 0 0
0 0 0
32 0 0
32 0 0
32 0 0
32 0 0
32 0 0
32 0 0
32 0 0
64 32 0
64 0 0
96 32 64
96 32 64
96 32 64
96 32 64
96 32 64
96 32 64
128 64 64
128 64 64
128 64 64
160 64 64
160 64 128
192 64 128
160 64 128
192 64 128
224 96 128
224 96 128
224 96 128
224 96 128
224 96 128
224 96 192
192 96 128
192 96 128
192 96 128
0 0 0
0 0 0
0 0 0
0 0 0
0 0 0
0 0 0
0 0 0
0 0 0
0 0 0
0 0 0
0 0 0
0 0 64
32 0 64
32 32 64
0 0 64
0 0 64
0 0 64
0 0 64
0 0 64
0 0 64
0 0 64
32 0 128
32 0 128
32 0 64
96 64 0
64 64 192
96 96 0
64 64 0
96 64 0
96 64 0
64 64 0
96 64 0
96 64 0
32 0 0
64 32 0
32 0 0
0 0 0
0 0 0
0 0 0
0 0 0
0 0 0
0 0 0
0 0 0
0 0 0
0 0 0
0 0 0
0 0 0
0 0 0
32 0 0
32 0 0
0 0 0
32 0 0
32 0 0
64 0 0
64 0 0
96 32 64
64 32 0
64 32 64
64 32 0
64 32 64
96 32 64
128 32 64
128 32 64
96 32 64
128 64 64
128 32 64
192 64 128
128 64 64
160 64 128
128 64 64
192 64 128
224 96 128
192 96 128
192 64 128
224 96 192
224 96 128
192 64 128
224 96 192
192 96 128
192 64 128
0 0 0
0 0 0
0 0 0
0 0 0
0 0 0
0 0 0
0 0 0
0 0 0
0 0 0
0 0 0
0 0 0
32 0 64
32 0 64
64 32 64
32 0 64
0 0 64
0 0 64
0 0 64
0 0 64
0 0 64
32 0 128
32 0 64
0 0 64
32 0 64
192 192 128
64 64 192
64 64 0
96 96 0
96 64 0
96 64 0
96 64 0
96 96 0
64 32 64
32 32 0
32 0 0
32 0 0
32 0 0
0 0 0
0 0 0
0 0 0
0 0 0
0 0 0
0 0 0
0 0 0
0 0 0
0 0 0
0 0 0
0 0 0
32 0 0
32 0 0
0 0 0
64 0 0
64 0 0
0 0 0
64 0 0
64 32 0
64 32 0
96 32 64
64 32 64
64 32 64
96 32 64
96 32 64
96 32 64
96 32 64
96 32 64
192 64 128
192 96 128
160 64 64
192 64 128
192 64 128
192 64 128
224 96 128
192 64 128
192 96 128
192 96 128
224 96 128
224 96 128
192 96 128
224 96 192
160 64 128
0 0 0
0 0 0
0 0 0
0 0 0
0 0 0
0 0 0
0 0 0
0 0 0
0 0 0
0 0 0
0 0 64
32 0 64
32 0 64
64 32 64
32 0 64
32 0 64
0 0 64
0 0 64
0 0 64
0 0 64
0 0 64
0 0 64
0 0 64
0 0 64
0 0 0
96 64 0
64 64 0
96 64 0
96 64 0
96 64 0
96 64 0
96 64 0
64 32 0
32 0 0
32 0 0
64 32 0
32 0 0
32 0 0
0 0 0
0 0 0
0 0 0
0 0 0
0 0 0
0 0 0
0 0 0
0 0 0
0 0 0
0 0 0
32 0 0
32 0 0
32 0 0
32 0 0
64 0 0
32 0 0
64 32 0
64 32 64
64 32 0
32 0 0
96 32 64
96 32 64
96 32 64
96 32 64
96 32 64
128 64 64
128 64 64
128 64 64
160 64 128
160 64 128
160 64 128
160 64 128
192 96 128
192 64 128
192 96 128
224 96 128
224 96 128
224 96 128
224 96 128
224 96 128
192 96 128
192 64 128
0 0 0
0 0 0
0 0 0
0 0 0
0 0 0
0 0 0
0 0 0
0 0 0
0 0 0
0 0 64
0 0 64
32 0 64
32 0 64
64 32 64
64 32 64
32 32 64
0 0 64
0 0 64
0 0 64
0 0 64
0 0 64
0 0 64
0 0 64
0 0 64
32 32 0
32 0 0
160 160 128
96 64 0
64 64 0
96 64 0
64 64 192
64 64 192
32 0 0
64 32 0
32 0 0
32 0 0
32 0 0
0 0 0
0 0 0
0 0 0
0 0 0
0 0 0
0 0 0
0 0 0
0 0 0
0 0 0
0 0 0
0 0 0
32 0 0
32 0 0
64 0 0
64 0 0
32 0 0
64 0 0
64 32 64
64 32 0
32 0 0
64 32 0
64 32 64
96 32 64
96 32 64
128 32 64
96 32 64
128 64 64
128 64 64
128 64 64
160 64 128
160 64 128
128 64 64
160 64 128
160 64 128
160 64 128
192 96 128
160 64 128
224 96 128
192 64 128
224 96 128
192 64 128
160 64 128
192 96 128
0 0 0
0 0 0
0 0 0
0 0 0
0 0 0
0 0 0
0 0 0
0 0 0
0 0 0
0 0 0
32 0 64
0 0 64
32 0 64
32 0 64
32 32 64
64 32 64
0 0 0
0 0 64
0 0 64
0 0 64
0 0 64
0 0 64
0 0 64
0 0 64
192 160 128
160 128 64
224 192 128
32 0 192
64 32 192
96 64 0
96 64 0
192 160 128
64 32 0
64 32 0
32 0 0
32 0 0
32 0 0
32 32 0
0 0 0
0 0 0
0 0 0
0 0 0
0 0 0
0 0 0
0 0 0
0 0 0
0 0 0
0 0 0
32 0 0
32 0 0
64 0 0
32 0 0
32 0 0
32 0 0
64 32 0
32 0 0
64 32 0
64 32 0
96 32 64
96 32 64
96 32 64
128 64 64
96 32 64
128 32 64
128 64 64
128 64 64
160 64 64
160 64 64
160 64 64
160 64 128
160 64 128
192 64 128
160 64 128
160 64 128
192 64 128
192 64 128
192 64 128
224 96 128
224 96 192
192 64 128
0 0 0
0 0 0
0 0 0
0 0 0
0 0 0
0 0 0
0 0 0
0 0 0
0 0 0
0 0 0
32 0 0
32 0 64
32 0 64
32 0 64
32 0 64
64 32 64
0 0 64
0 0 64
32 0 64
0 0 64
0 0 64
32 32 64
32 32 64
32 32 64
128 96 64
128 96 64
128 96 64
160 128 64
160 128 64
160 128 128
224 192 128
192 160 128
64 32 0
32 0 0
32 0 0
64 32 0
32 0 0
32 0 0
0 0 0
0 0 0
0 0 0
0 0 0
0 0 0
0 0 0
0 0 0
0 0 0
0 0 0
0 0 0
64 0 0
32 0 0
32 0 0
64 0 0
64 0 0
64 0 0
96 32 64
64 0 0
64 32 64
64 32 64
96 32 64
128 32 64
96 32 64
96 32 64
96 32 64
128 64 64
96 32 64
128 32 64
160 64 128
128 64 64
160 64 64
192 96 128
160 64 128
192 64 128
160 64 128
192 96 128
160 64 128
128 64 64
192 64 128
224 96 128
192 64 128
192 96 128
0 0 0
0 0 0
0 0 0
0 0 0
0 0 0
0 0 0
0 0 0
0 0 0
0 0 0
0 0 64
32 0 64
32 0 64
32 0 64
64 32 64
32 0 64
32 32 64
0 0 64
0 0 64
64 32 64
32 32 64
32 32 64
32 32 64
32 32 64
32 32 64
96 64 0
64 64 0
96 64 64
96 64 64
96 96 64
128 96 64
128 96 64
160 128 64
128 128 128
64 32 0
32 0 0
0 0 0
32 0 0
32 0 0
0 0 0
0 0 0
0 0 0
0 0 0
0 0 0
0 0 0
0 0 0
0 0 0
0 0 0
0 0 0
32 0 0
32 0 0
32 0 0
32 0 0
32 0 0
64 32 0
64 32 0
64 32 0
32 0 0
64 0 0
96 32 64
64 32 64
96 32 64
96 32 64
128 32 64
160 64 64
128 32 64
160 64 64
128 64 64
160 64 128
192 64 128
160 64 128
128 64 64
160 64 128
192 64 128
192 96 128
192 96 128
224 96 128
192 64 128
224 96 128
192 64 128
160 64 128
0 0 0
0 0 0
0 0 0
0 0 0
0 0 0
0 0 0
0 0 0
0 0 0
0 0 0
0 0 0
0 0 64
32 0 64
32 0 64
32 0 64
32 32 64
32 0 64
0 0 64
32 32 64
0 0 64
32 32 64
32 32 64
64 32 64
64 32 128
32 32 64
64 64 0
64 64 0
96 64 64
128 96 64
64 64 0
96 64 64
128 96 64
96 64 64
128 96 64
32 0 0
32 32 0
64 32 0
32 0 0
0 0 0
0 0 0
0 0 0
0 0 0
0 0 0
0 0 0
0 0 0
0 0 0
0 0 0
0 0 0
0 0 0
32 0 0
32 0 0
32 0 0
32 0 0
96 32 64
32 0 0
64 0 0
32 0 0
64 32 64
64 32 64
96 32 64
96 32 64
96 32 64
96 32 64
128 32 64
128 32 64
128 32 64
96 32 64
160 64 128
128 32 64
128 64 64
160 64 128
192 64 128
128 64 64
160 64 128
192 64 128
192 64 128
224 96 128
192 96 128
160 64 128
160 64 128
160 64 128
0 0 0
0 0 0
0 0 0
0 0 0
0 0 0
0 0 0
0 0 0
0 0 0
0 0 0
0 0 0
0 0 0
32 0 64
0 0 64
32 0 64
32 0 64
32 0 64
32 32 64
64 32 64
32 32 64
32 32 64
32 32 64
32 32 64
64 32 64
64 32 64
64 64 0
96 64 0
64 32 0
96 64 64
128 96 64
128 96 64
96 64 64
96 64 64
64 32 0
64 32 0
32 0 0
32 0 0
0 0 0
32 32 0
32 0 0
0 0 0
0 0 0
0 0 0
0 0 0
0 0 0
0 0 0
0 0 0
0 0 0
0 0 0
64 0 0
64 0 0
32 0 0
32 0 0
64 0 0
64 32 0
32 0 0
64 32 0
64 32 0
96 32 64
64 0 0
96 32 64
96 32 64
64 32 64
128 32 64
96 32 64
160 64 64
128 32 64
128 32 64
160 64 128
128 32 64
160 64 64
160 64 128
160 64 128
160 64 128
160 64 128
160 64 128
160 64 128
192 64 128
192 64 128
160 64 128
64 32 64
0 0 0
0 0 0
0 0 0
0 0 0
0 0 0
0 0 0
0 0 0
0 0 0
0 0 0
0 0 0
0 0 0
0 0 64
32 0 64
32 0 64
0 0 0
0 0 0
32 0 64
32 32 64
0 0 64
32 32 64
32 32 64
32 32 64
32 32 64
32 32 64
64 64 0
64 64 0
64 64 0
96 64 64
64 64 0
96 64 64
96 64 64
64 32 0
32 0 0
64 32 0
32 0 0
32 0 0
32 0 0
0 0 0
32 32 0
0 0 0
0 0 0
0 0 0
0 0 0
0 0 0
0 0 0
0 0 0
0 0 0
0 0 0
0 0 0
32 0 0
32 0 0
32 0 0
32 0 0
64 32 0
64 32 0
64 32 64
64 0 0
64 32 0
32 0 0
128 32 64
64 0 0
96 32 64
128 32 64
128 64 64
128 32 64
128 64 64
128 64 64
160 64 64
160 64 128
160 64 128
160 64 128
160 64 128
160 64 128
192 64 128
192 64 128
160 64 128
160 64 128
128 32 64
128 64 64
0 0 0
0 0 0
0 0 0
0 0 0
0 0 0
0 0 0
0 0 0
0 0 0
0 0 0
0 0 0
0 0 0
0 0 0
0 0 0
0 0 64
0 0 64
0 0 64
0 0 0
32 0 64
64 32 128
0 0 64
32 32 64
32 32 64
32 32 64
64 32 64
32 32 64
64 32 0
96 64 64
64 64 0
64 32 0
64 64 0
96 64 0
64 64 0
32 32 0
32 32 0
32 32 0
0 0 0
0 0 0
0 0 0
0 0 0
0 0 0
0 0 0
0 0 0
0 0 0
0 0 0
0 0 0
0 0 0
0 0 0
0 0 0
0 0 0
0 0 0
32 0 0
64 0 0
32 0 0
32 0 0
32 0 0
64 32 0
64 0 0
64 32 64
64 32 64
64 32 0
64 32 0
64 32 0
96 32 64
128 32 64
128 32 64
128 32 64
128 32 64
128 64 64
160 64 64
128 64 64
192 64 128
160 64 128
160 64 128
160 64 128
160 64 128
160 64 128
160 64 128
128 64 128
128 32 64
96 32 64
0 0 0
0 0 0
0 0 0
0 0 0
0 0 0
0 0 0
0 0 0
0 0 0
0 0 0
0 0 0
0 0 0
0 0 0
0 0 0
0 0 0
32 0 64
0 0 0
32 0 64
32 32 64
32 32 64
32 32 64
32 32 64
32 32 64
64 32 64
32 32 64
32 32 64
64 32 0
32 32 0
64 32 0
96 64 64
64 64 0
64 32 0
32 32 0
32 32 0
64 32 0
32 32 0
0 0 0
0 0 0
0 0 0
32 32 0
0 0 0
0 0 0
0 0 0
0 0 0
0 0 0
0 0 0
0 0 0
0 0 0
0 0 0
0 0 0
0 0 0
0 0 0
32 0 0
96 32 64
32 0 0
32 0 0
64 0 0
64 32 0
64 32 0
96 32 64
64 32 64
96 32 64
64 0 0
64 32 0
128 32 64
96 32 64
96 32 64
128 32 64
128 32 64
128 64 64
128 32 64
160 64 128
160 64 128
128 64 64
128 32 64
160 64 64
160 64 128
128 64 64
128 64 64
128 64 128
0 0 0
0 0 0
0 0 0
0 0 0
0 0 0
0 0 0
0 0 0
0 0 0
0 0 0
0 0 0
0 0 0
0 0 0
0 0 0
0 0 0
32 0 64
32 0 0
32 0 64
32 32 64
32 32 64
32 32 64
32 32 64
32 32 64
32 32 64
32 32 64
32 32 64
32 32 64
32 32 0
64 32 0
64 64 0
64 64 0
64 64 0
64 64 0
32 32 0
64 64 0
32 0 0
0 0 0
0 0 0
0 0 0
0 0 0
0 0 0
0 0 0
0 0 0
0 0 0
0 0 0
0 0 0
0 0 0
0 0 0
0 0 0
0 0 0
0 0 0
0 0 0
0 0 0
32 0 0
64 0 0
64 32 0
96 32 64
64 0 0
64 32 0
32 0 0
64 32 64
64 32 64
96 32 64
96 32 64
64 32 64
96 32 64
96 32 64
96 32 64
128 32 64
128 64 64
128 64 64
128 32 64
128 32 64
192 64 128
160 64 128
192 64 128
128 32 64
160 64 64
128 32 128
160 64 64
96 32 64
0 0 0
0 0 0
0 0 0
0 0 0
0 0 0
0 0 0
0 0 0
0 0 0
0 0 0
0 0 0
0 0 0
0 0 0
0 0 0
0 0 0
0 0 64
32 0 64
0 0 64
0 0 0
32 32 64
32 0 64
32 32 64
32 32 64
64 32 64
32 0 64
64 32 128
32 32 128
64 32 0
64 64 0
32 32 0
32 32 0
64 32 0
32 32 0
32 32 0
64 32 0
32 32 0
32 32 0
32 32 0
32 0 0
0 0 0
0 0 0
0 0 0
0 0 0
0 0 0
0 0 0
0 0 0
0 0 0
0 0 0
0 0 0
0 0 0
0 0 0
0 0 0
0 0 0
0 0 0
64 0 0
32 0 0
32 0 0
32 0 0
64 32 0
64 32 64
64 0 0
64 0 0
64 32 0
64 32 64
64 32 0
96 32 64
128 32 64
96 32 64
128 32 64
128 32 64
160 64 128
128 32 64
128 64 64
128 64 64
128 64 128
128 64 64
128 32 64
128 32 64
96 32 64
128 32 128
0 0 0
0 0 0
0 0 0
0 0 0
0 0 0
0 0 0
0 0 0
0 0 0
0 0 0
0 0 0
0 0 0
0 0 0
0 0 0
0 0 0
0 0 0
0 0 64
0 0 0
32 0 64
32 0 64
0 0 64
32 32 64
32 32 64
32 32 64
0 0 64
32 32 64
32 32 64
32 0 64
64 64 0
96 64 0
96 96 64
32 32 0
64 32 0
64 32 0
32 32 0
32 32 0
32 32 0
32 0 0
0 0 0
0 0 0
0 0 0
0 0 0
0 0 0
0 0 0
0 0 0
0 0 0
0 0 0
0 0 0
0 0 0
0 0 0
0 0 0
0 0 0
0 0 0
0 0 0
0 0 0
0 0 0
64 0 0
32 0 0
64 0 0
64 0 0
64 0 0
128 32 64
96 32 64
64 32 64
64 0 0
96 32 64
96 32 64
96 32 64
64 32 64
96 32 64
128 32 64
96 32 64
160 64 128
128 32 64
128 32 64
160 64 128
128 32 64
160 64 64
128 32 64
128 32 64
0 0 0
0 0 0
0 0 0
0 0 0
0 0 0
0 0 0
0 0 0
0 0 0
0 0 0
0 0 0
0 0 0
0 0 0
0 0 0
0 0 0
0 0 0
0 0 0
0 0 0
0 0 64
0 0 64
32 0 64
32 0 64
32 0 64
32 0 64
32 0 64
32 0 64
32 32 64
32 32 64
32 32 64
32 32 0
64 64 0
32 32 0
96 64 64
32 32 0
64 32 0
32 32 0
64 32 0
32 32 0
32 0 0
32 0 0
0 0 0
0 0 0
0 0 0
0 0 0
0 0 0
0 0 0
0 0 0
0 0 0
0 0 0
0 0 0
0 0 0
0 0 0
0 0 0
0 0 0
0 0 0
0 0 0
0 0 0
0 0 0
32 0 0
32 0 0
32 0 0
64 0 0
64 0 0
64 0 0
64 0 0
96 32 64
64 32 64
64 32 64
128 32 64
128 32 64
96 32 64
128 32 64
96 32 64
128 32 64
128 32 64
160 64 64
128 32 64
128 32 64
96 32 64
96 32 64
0 0 0
0 0 0
0 0 0
0 0 0
0 0 0
0 0 0
0 0 0
0 0 0
0 0 0
0 0 0
0 0 0
0 0 0
0 0 0
0 0 0
0 0 0
0 0 0
0 0 0
0 0 0
0 0 0
0 0 64
0 0 64
0 0 64
0 0 64
32 32 64
0 0 64
0 0 64
32 0 64
32 32 64
32 32 64
32 32 0
64 32 0
32 32 0
64 32 0
64 64 0
64 32 0
32 32 0
32 32 0
0 0 0
0 0 0
0 0 0
0 0 0
0 0 0
0 0 0
0 0 0
0 0 0
0 0 0
0 0 0
0 0 0
0 0 0
0 0 0
0 0 0
0 0 0
0 0 0
0 0 0
0 0 0
0 0 0
0 0 0
0 0 0
0 0 0
32 0 0
64 0 0
64 0 0
32 0 0
32 0 0
96 32 64
96 32 64
96 32 64
64 32 0
96 32 64
128 32 64
96 32 64
128 32 64
128 32 64
128 32 64
128 32 64
128 32 64
96 32 64
160 64 128
96 32 64
0 0 0
0 0 0
0 0 0
0 0 0
0 0 0
0 0 0
0 0 0
0 0 0
0 0 0
0 0 0
0 0 0
0 0 0
0 0 0
0 0 0
0 0 0
0 0 0
0 0 0
0 0 0
0 0 0
0 0 0
0 0 64
0 0 0
0 0 0
32 0 64
0 0 64
32 0 64
0 0 64
32 0 64
32 32 64
32 32 64
32 32 0
64 64 0
64 64 0
32 32 0
64 64 0
32 32 0
64 32 0
32 0 0
0 0 0
0 0 0
0 0 0
0 0 0
0 0 0
0 0 0
0 0 0
0 0 0
0 0 0
0 0 0
0 0 0
0 0 0
0 0 0
0 0 0
0 0 0
0 0 0
0 0 0
0 0 0
0 0 0
0 0 0
0 0 0
0 0 0
0 0 0
32 0 0
64 0 0
32 0 0
64 0 0
64 0 0
64 32 0
64 0 0
96 32 64
96 32 64
128 32 64
128 32 64
64 32 64
160 64 64
128 32 64
128 32 64
96 32 64
96 32 64
96 32 64
0 0 0
0 0 0
0 0 0
0 0 0
0 0 0
0 0 0
0 0 0
0 0 0
0 0 0
0 0 0
0 0 0
0 0 0
0 0 0
0 0 0
0 0 0
0 0 0
0 0 0
0 0 0
0 0 0
0 0 0
0 0 0
0 0 0
0 0 0
0 0 0
0 0 0
0 0 0
32 0 64
0 0 64
0 0 64
0 0 64
32 32 64
32 32 0
32 32 0
32 0 0
32 0 0
32 32 0
0 0 0
0 0 0
0 0 0
0 0 0
0 0 0
0 0 0
0 0 0
0 0 0
0 0 0
0 0 0
0 0 0
0 0 0
0 0 0
0 0 0
0 0 0
0 0 0
0 0 0
0 0 0
0 0 0
0 0 0
0 0 0
0 0 0
0 0 0
0 0 0
0 0 0
0 0 0
0 0 0
0 0 0
32 0 0
32 0 0
64 32 0
32 0 0
64 32 64
96 32 64
64 32 64
96 32 64
96 32 64
128 32 64
64 32 64
96 32 64
128 32 64
96 32 64
0 0 0
0 0 0
0 0 0
0 0 0
0 0 0
0 0 0
0 0 0
0 0 0
0 0 0
0 0 0
0 0 0
0 0 0
0 0 0
0 0 0
0 0 0
0 0 0
0 0 0
0 0 0
0 0 0
0 0 0
0 0 0
0 0 0
0 0 0
0 0 0
0 0 0
0 0 0
0 0 0
0 0 0
0 0 0
0 0 64
0 0 0
32 0 64
0 0 64
0 0 0
0 0 0
0 0 0
0 0 0
0 0 0
0 0 0
0 0 0
0 0 0
0 0 0
0 0 0
0 0 0
0 0 0
0 0 0
0 0 0
0 0 0
0 0 0
0 0 0
0 0 0
0 0 0
0 0 0
0 0 0
0 0 0
0 0 0
0 0 0
0 0 0
0 0 0
0 0 0
0 0 0
0 0 0
0 0 0
0 0 0
0 0 0
0 0 0
0 0 0
0 0 0
0 0 0
64 0 0
64 0 0
64 0 0
64 0 0
96 32 64
64 0 0
64 32 64
64 32 64
0 0 0
0 0 0
0 0 0
0 0 0
0 0 0
0 0 0
0 0 0
0 0 0
0 0 0
32 32 0
0 0 0
0 0 0
0 0 0
0 0 0
0 0 0
0 0 0
0 0 0
0 0 0
0 0 0
0 0 0
0 0 0
32 0 0
0 0 0
0 0 0
0 0 0
0 0 0
0 0 0
0 0 0
32 0 0
0 0 0
0 0 0
0 0 0
0 0 64
0 0 64
0 0 64
0 0 64
0 0 0
0 0 0
0 0 0
0 0 0
0 0 0
0 0 0
0 0 0
0 0 0
0 0 0
0 0 0
0 0 0
0 0 0
0 0 0
0 0 0
0 0 0
0 0 0
0 0 0
0 0 0
0 0 0
0 0 0
0 0 0
0 0 0
0 0 0
0 0 0
0 0 0
0 0 0
0 0 0
0 0 0
0 0 0
0 0 0
0 0 0
32 0 0
0 0 0
32 0 0
0 0 0
0 0 0
0 0 0
0 0 0
0 0 0
0 0 0
0 0 0
32 32 0
0 0 0
32 32 0
0 0 0
32 0 0
0 0 0
32 0 0
32 32 0
0 0 0
32 32 0
0 0 0
32 32 0
0 0 0
32 32 0
32 0 0
64 64 0
32 32 0
32 32 0
0 0 0
32 32 0
32 32 0
32 0 0
32 32 0
32 32 0
32 32 0
0 0 0
32 0 0
32 32 0
0 0 0
0 0 0
32 32 0
64 32 0
32 32 0
32 32 0
0 0 0
32 0 0
32 0 0
0 0 0
32 32 0
0 0 0
0 0 0
0 0 0
0 0 0
0 0 0
0 0 0
32 32 0
0 0 0
0 0 0
0 0 0
0 0 0
0 0 0
0 0 0
0 0 0
0 0 0
0 0 0
0 0 0
0 0 0
0 0 0
0 0 0
0 0 0
0 0 0
0 0 0
0 0 0
0 0 0
0 0 0
0 0 0
0 0 0
0 0 0
0 0 0
0 0 0
0 0 0
0 0 0
0 0 0
32 32 0
0 0 0
0 0 0
0 0 0
0 0 0
0 0 0
32 32 0
0 0 0
0 0 0
0 0 0
32 0 0
0 0 0
32 0 0
0 0 0
32 32 0
0 0 0
0 0 0
32 32 0
32 32 0
0 0 0
32 32 0
32 32 0
32 32 0
32 32 0
32 32 0
32 32 0
64 32 0
32 0 0
32 32 0
0 0 0
32 0 0
32 32 0
32 32 0
32 32 0
32 32 0
32 32 0
0 0 0
32 32 0
32 32 0
64 32 0
64 64 0
32 32 0
64 64 0
64 32 0
64 32 0
32 32 0
0 0 0
0 0 0
0 0 0
0 0 0
0 0 0
0 0 0
0 0 0
0 0 0
0 0 0
0 0 0
0 0 0
0 0 0
0 0 0
0 0 0
0 0 0
0 0 0
0 0 0
0 0 0
0 0 0
0 0 0
0 0 0
0 0 0
0 0 0
0 0 0
0 0 0
0 0 0
0 0 0
0 0 0
0 0 0
0 0 0
0 0 0
0 0 0
0 0 0
0 0 0
0 0 0
0 0 0
0 0 0
0 0 0
0 0 0
0 0 0
0 0 0
32 0 0
0 0 0
0 0 0
32 0 0
0 0 0
32 32 0
0 0 0
32 32 0
32 0 0
0 0 0
32 0 0
0 0 0
0 0 0
32 32 0
0 0 0
0 0 0
32 0 0
0 0 0
0 0 0
0 0 0
0 0 0
0 0 0
0 0 0
0 0 0
0 0 0
0 0 0
0 0 0
0 0 0
0 0 0
0 0 0
0 0 0
32 32 0
32 0 0
0 0 0
32 32 0
32 32 0
32 32 0
32 32 0
64 32 0
0 0 0
0 0 0
0 0 0
0 0 0
32 0 0
32 0 0
0 0 0
32 32 0
32 32 0
32 0 0
32 32 0
32 0 0
32 32 0
32 0 0
0 0 0
32 32 0
32 0 0
0 0 0
0 0 0
32 0 0
32 32 0
0 0 0
32 0 0
0 0 0
0 0 0
32 0 0
0 0 0
32 0 0
0 0 0
0 0 0
0 0 0
0 0 0
0 0 0
32 0 0
0 0 0
0 0 0
0 0 0
32 0 0
0 0 0
32 0 0
32 0 0
32 0 0
32 0 0
32 0 0
32 0 0
32 0 0
32 0 0
32 0 0
32 32 0
32 32 0
64 32 0
64 32 64
64 64 0
32 32 0
64 32 0
64 32 0
64 64 64
32 32 0
32 32 0
32 32 0
64 32 0
32 32 0
32 0 0
32 32 0
32 0 0
32 0 0
32 0 0
32 32 0
32 0 0
0 0 0
32 0 0
0 0 0
32 0 0
32 0 0
0 0 0
0 0 0
0 0 0
0 0 0
0 0 0
32 0 0
64 64 0
64 64 0
64 64 0
32 32 0
96 64 64
32 32 0
64 32 0
64 32 0
64 32 0
64 32 0
64 64 0
64 32 0
64 64 0
32 32 0
64 32 0
64 64 64
64 32 0
32 32 0
64 32 0
64 32 0
32 32 0
64 32 0
32 32 0
64 32 0
64 32 0
32 0 0
32 32 0
32 32 0
32 32 0
64 32 0
64 32 0
64 32 0
32 0 0
32 0 0
32 32 0
32 32 0
64 32 0
64 32 0
64 32 0
96 32 64
96 32 64
96 64 64
128 64 64
96 32 64
64 32 0
64 32 0
128 64 64
96 64 64
96 64 64
96 64 64
96 64 64
96 64 64
96 32 64
128 64 64
96 64 64
64 64 64
96 64 64
128 64 64
96 64 64
128 96 64
96 64 64
96 64 64
64 64 64
96 64 64
96 64 64
96 64 64
128 96 64
64 64 64
64 32 64
64 32 64
96 64 64
64 32 0
32 32 0
96 64 64
64 32 64
64 64 64
64 64 64
96 64 64
64 64 64
64 64 64
64 64 0
32 32 0
64 32 0
64 64 0
96 64 64
32 32 0
64 32 0
64 64 64
64 64 0
64 32 0
32 32 0
96 64 64
64 32 0
96 64 64
64 64 0
32 32 0
96 64 64
64 64 0
96 64 64
64 32 0
32 32 0
64 32 0
96 64 64
96 64 64
64 32 0
96 64 64
64 32 0
64 32 0
64 64 0
64 32 0
96 64 64
96 64 64
64 64 0
96 64 64
96 64 64
96 64 64
96 64 64
128 64 64
96 64 64
96 64 64
96 64 64
128 64 64
128 96 64
128 64 64
96 64 64
128 96 64
160 96 64
128 96 64
96 64 64
160 96 64
128 96 64
96 64 64
96 64 64
128 96 64
128 96 64
128 64 64
96 64 64
128 96 64
128 96 64
128 96 64
96 64 64
160 96 64
96 64 64
128 96 64
96 96 64
96 64 64
128 96 64
128 96 64
96 64 64
128 96 64
96 96 64
128 96 64
128 96 64
128 96 64
128 96 64
96 96 64
96 64 64
96 64 64
128 96 64
128 96 64
64 64 0
64 32 0
64 64 0
32 32 0
64 64 0
64 32 0
64 32 0
64 64 64
64 64 0
32 32 0
64 32 0
64 32 0
64 64 0
96 64 64
96 64 64
64 32 0
64 32 0
96 64 64
64 64 64
64 32 0
96 64 64
64 64 0
64 32 0
96 64 64
96 64 64
128 96 64
96 64 64
64 64 64
96 64 64
64 32 0
96 64 64
96 64 64
128 96 64
64 64 0
96 64 64
96 64 64
128 96 64
96 64 64
96 96 64
128 96 64
128 96 64
128 96 64
96 64 64
96 64 64
128 64 64
160 96 64
128 96 64
128 96 64
160 128 64
128 64 64
128 96 64
128 96 64
96 64 64
128 96 64
160 96 64
128 96 64
128 96 64
160 96 64
160 96 64
128 96 64
128 96 64
96 96 64
128 96 64
160 96 64
128 96 64
128 96 64
96 64 64
128 96 64
128 96 64
128 96 64
128 96 64
128 96 64
160 128 128
128 96 64
160 128 64
192 160 128
160 128 128
96 96 64
160 128 64
160 128 128
64 64 64
64 64 0
64 64 0
96 64 64
64 32 0
64 32 0
64 64 64
32 32 0
96 64 64
64 32 0
64 64 0
64 32 0
96 64 64
64 64 0
64 32 0
64 64 0
96 64 64
64 32 0
96 64 64
96 64 64
64 64 0
64 64 64
64 64 64
96 64 64
64 64 0
96 64 64
96 64 64
96 64 64
64 64 0
64 64 64
96 64 64
128 96 64
96 64 64
96 64 64
96 64 64
96 64 64
128 96 64
128 96 64
96 64 64
128 96 64
96 64 64
128 96 64
128 96 64
128 96 64
160 128 64
128 96 64
96 96 64
128 96 64
96 64 64
96 64 64
128 96 64
128 96 64
128 96 64
160 96 64
128 96 64
96 64 64
160 128 128
160 128 64
96 64 64
160 128 128
96 96 64
128 96 64
128 96 64
160 96 64
128 96 64
160 128 64
128 128 64
128 128 64
128 96 64
160 128 128
128 96 64
128 96 64
128 96 64
160 128 64
96 64 64
128 96 64
160 128 64
160 128 128
160 128 64
160 128 128
64 32 0
64 64 0
64 32 0
32 32 0
64 32 0
64 32 0
64 64 0
64 64 64
64 32 0
64 64 64
96 64 64
64 64 0
64 64 64
96 64 64
96 64 64
64 64 0
96 64 64
64 64 64
96 64 64
64 64 0
96 64 64
64 64 64
64 64 64
96 64 64
128 96 64
96 64 64
96 64 64
96 96 64
64 64 64
96 64 64
96 64 64
96 64 64
96 64 64
96 64 64
96 64 64
64 32 0
96 96 64
96 64 64
128 96 64
96 96 64
128 96 64
128 96 64
128 96 64
96 96 64
96 96 64
128 96 64
128 96 64
128 128 64
160 128 64
96 64 64
128 96 64
128 96 64
128 96 64
128 96 64
160 128 64
128 96 64
160 128 64
128 96 64
128 96 64
128 96 64
128 96 64
160 128 64
128 96 64
160 128 64
96 96 64
128 96 64
128 96 64
160 128 64
160 128 128
96 64 64
160 128 128
128 128 64
128 96 64
192 160 128
128 96 64
160 128 64
128 96 64
160 128 64
160 128 128
160 128 128
64 64 0
64 64 0
64 64 64
64 64 0
96 64 64
64 32 0
64 64 64
64 32 0
96 64 64
64 32 0
96 64 64
96 64 64
96 64 64
96 96 64
64 64 64
64 64 0
96 96 64
96 96 64
96 64 64
96 64 64
96 64 64
64 64 64
64 64 64
128 96 64
96 96 64
96 64 64
96 64 64
128 96 64
96 64 64
96 64 64
128 96 64
64 64 0
96 96 64
96 64 64
64 64 0
96 96 64
96 64 64
96 64 64
96 96 64
128 96 64
128 96 64
96 64 64
96 96 64
128 96 64
128 96 64
96 64 64
96 96 64
128 96 64
96 96 64
128 96 64
96 96 64
160 128 64
128 96 64
128 96 64
128 96 64
128 96 64
128 96 64
128 96 64
128 96 64
128 96 64
160 128 128
96 96 64
160 128 128
128 96 64
128 128 64
128 96 64
128 96 64
160 128 64
96 64 64
160 128 64
160 128 64
128 96 64
160 128 128
160 128 64
160 128 64
192 160 128
128 96 64
160 128 128
128 128 64
160 128 128
96 64 64
96 64 64
96 64 64
64 64 0
96 64 64
64 64 0
96 64 64
96 64 64
96 64 64
96 64 64
96 96 64
64 64 0
96 64 64
64 64 0
96 64 64
64 32 0
64 64 64
96 64 64
64 64 0
96 64 64
96 64 64
64 64 64
96 96 64
96 64 64
128 96 64
96 64 64
64 64 64
64 32 0
128 96 64
96 96 64
128 96 64
128 96 64
96 64 64
128 96 64
96 96 64
96 96 64
64 32 0
96 64 64
96 64 64
96 96 64
96 96 64
96 96 64
128 96 64
96 96 64
128 96 64
96 64 64
128 96 64
96 96 64
128 96 64
128 96 64
128 96 64
128 96 64
96 64 64
160 128 64
128 96 64
128 96 64
128 128 64
160 128 64
128 96 64
128 128 64
128 96 64
128 96 64
160 128 128
128 96 64
160 128 64
128 128 64
128 96 64
160 128 128
160 128 128
128 96 64
160 128 128
160 128 64
128 128 64
160 128 64
160 128 128
128 128 64
128 128 64
128 96 64
128 128 64
128 128 64
64 64 64
64 64 0
64 32 0
96 64 64
64 64 64
96 64 64
64 64 64
64 64 64
64 64 0
96 64 64
64 32 0
96 64 64
64 64 0
64 64 64
96 64 64
64 64 0
96 64 64
64 64 64
64 32 0
96 64 64
64 64 0
96 64 64
96 64 64
128 96 64
96 64 64
96 96 64
96 64 64
64 64 64
64 64 64
128 96 64
128 96 64
128 96 64
128 96 64
128 96 64
96 64 64
96 64 64
128 128 64
128 96 64
128 96 64
128 128 64
128 96 64
96 64 64
96 96 64
96 96 64
128 96 64
128 96 64
96 96 64
160 128 64
96 64 64
160 128 64
96 64 64
128 96 64
128 128 64
128 96 64
160 128 128
128 96 64
160 128 64
128 96 64
128 96 64
160 128 128
128 96 64
160 128 64
160 128 64
96 96 64
128 96 64
160 128 64
128 128 64
128 128 64
128 128 64
128 128 64
128 128 64
160 128 64
160 128 64
160 128 128
160 128 128
128 128 64
128 96 64
160 128 128
160 128 64
128 96 64
64 32 0
96 64 64
64 64 64
64 64 0
96 64 64
64 32 0
64 64 64
64 64 64
96 96 64
32 32 0
96 96 64
96 64 64
128 96 64
96 96 64
96 64 64
96 96 64
96 96 64
64 64 0
64 64 64
128 96 64
96 64 64
128 96 64
64 64 64
96 64 64
64 64 64
64 64 0
96 64 64
96 64 64
96 64 64
96 64 64
96 96 64
96 64 64
96 64 64
96 64 64
128 96 64
96 64 64
96 96 64
128 96 64
128 96 64
96 64 64
128 128 64
96 96 64
96 64 64
160 128 128
96 96 64
160 128 64
128 96 64
128 96 64
128 96 64
128 96 64
160 128 64
128 96 64
128 96 64
128 96 64
128 96 64
96 96 64
160 128 64
128 96 64
128 96 64
96 96 64
128 96 64
128 96 64
160 128 64
128 96 64
128 96 64
128 128 64
128 96 64
160 128 128
128 96 64
160 128 64
192 160 128
128 128 64
128 96 64
128 96 64
160 128 64
128 96 64
128 96 64
160 128 64
96 96 64
160 128 64
64 64 64
64 64 0
64 64 64
64 64 64
96 64 64
64 64 0
96 64 64
96 64 64
96 64 64
96 64 64
96 64 64
96 96 64
96 96 64
128 96 64
64 64 0
64 64 0
64 64 0
96 96 64
96 64 64
160 128 64
96 64 64
64 64 64
128 96 64
96 64 64
128 96 64
96 96 64
64 64 0
96 96 64
128 96 64
96 64 64
128 96 64
96 64 64
64 32 0
128 96 64
128 96 64
128 96 64
96 96 64
128 128 64
128 96 64
128 96 64
128 96 64
96 96 64
96 96 64
128 96 64
128 96 64
128 128 64
128 96 64
128 96 64
96 64 64
96 96 64
128 96 64
160 128 64
96 96 64
96 96 64
128 96 64
128 96 64
160 128 64
128 96 64
160 128 64
128 128 64
160 128 64
128 96 64
128 96 64
128 96 64
160 128 64
160 128 64
160 128 64
128 128 64
160 128 64
160 128 128
128 96 64
192 160 128
160 128 64
128 128 64
128 128 64
160 128 128
160 128 64
192 160 128
128 128 64
160 128 64
64 64 0
96 64 64
64 64 64
96 64 64
96 64 64
96 64 64
96 64 64
64 32 0
96 64 64
96 64 64
96 64 64
64 64 0
64 64 0
96 96 64
96 64 64
64 64 64
96 96 64
96 64 64
128 96 64
96 64 64
128 96 64
96 64 64
128 96 64
96 96 64
96 64 64
96 96 64
96 64 64
96 96 64
96 64 64
96 96 64
96 96 64
64 64 0
96 64 64
128 128 64
96 96 64
96 64 64
128 96 64
64 64 64
128 96 64
128 96 64
96 96 64
64 64 0
96 96 64
64 64 0
128 96 64
160 128 64
96 64 64
128 96 64
128 96 64
128 96 64
128 96 64
160 128 64
128 96 64
128 96 64
128 96 64
128 96 64
128 96 64
128 96 64
128 96 64
128 128 64
96 96 64
160 128 64
128 96 64
128 96 64
128 96 64
128 128 64
160 128 64
128 96 64
128 96 64
160 128 64
160 128 64
128 96 64
160 128 64
128 96 64
160 128 128
160 128 64
160 128 64
160 128 128
96 96 64
160 128 64
96 96 64
96 64 64
96 64 64
96 64 64
64 32 0
96 64 64
96 64 64
128 96 64
64 64 64
96 64 64
96 96 64
64 32 0
64 64 64
96 64 64
96 96 64
64 64 64
96 64 64
96 96 64
96 64 64
96 96 64
96 64 64
96 96 64
96 96 64
96 96 64
96 64 64
96 96 64
96 96 64
96 64 64
96 64 64
64 32 0
96 64 64
128 96 64
96 64 64
96 64 64
96 64 64
128 96 64
96 96 64
128 96 64
128 96 64
128 96 64
96 96 64
96 96 64
128 96 64
128 96 64
96 96 64
128 96 64
96 96 64
128 96 64
128 128 64
96 64 64
128 96 64
96 96 64
128 96 64
128 128 64
160 128 64
128 96 64
128 96 64
192 160 128
96 96 64
160 128 64
96 96 64
160 128 64
128 96 64
128 128 64
128 96 64
128 96 64
160 128 128
128 96 64
128 96 64
160 128 128
128 128 64
160 128 64
128 96 64
160 128 64
96 64 64
128 96 64
160 128 64
128 96 64
160 128 128
160 128 128
96 64 64
96 64 64
96 64 64
64 64 64
64 64 64
64 64 0
96 64 64
64 32 0
64 64 0
96 64 64
96 96 64
96 96 64
96 64 64
96 64 64
96 64 64
64 64 64
64 64 0
128 96 64
96 64 64
96 96 64
96 96 64
96 64 64
96 96 64
96 64 64
128 96 64
64 64 0
96 96 64
96 96 64
96 96 64
96 96 64
128 96 64
128 96 64
96 64 64
96 96 64
64 64 64
128 96 64
128 96 64
128 96 64
128 96 64
96 64 64
128 96 64
128 128 64
128 96 64
128 96 64
128 96 64
128 96 64
96 96 64
128 96 64
128 96 64
128 96 64
128 128 64
128 96 64
128 128 64
128 128 64
160 128 64
160 128 64
160 128 64
128 96 64
160 128 64
128 128 64
128 96 64
128 128 64
160 128 128
128 128 64
128 128 64
160 128 128
160 128 64
128 96 64
128 96 64
128 96 64
160 128 64
128 128 64
160 128 64
160 128 128
160 128 64
128 96 64
192 160 128
128 96 64
128 96 64
128 128 64
64 64 64
96 64 64
96 96 64
96 64 64
128 96 64
64 64 0
64 64 64
64 64 0
96 64 64
96 96 64
128 96 64
96 64 64
96 96 64
128 96 64
64 64 64
96 64 64
64 64 64
64 64 64
96 96 64
96 96 64
96 96 64
96 64 64
128 96 64
96 64 64
96 64 64
128 96 64
128 96 64
128 128 64
96 96 64
96 96 64
96 64 64
96 64 64
128 96 64
128 96 64
128 96 64
96 64 64
128 96 64
96 96 64
128 96 64
128 96 64
128 96 64
96 64 64
128 96 64
96 64 64
96 64 64
128 128 64
96 96 64
128 96 64
96 96 64
128 96 64
96 64 64
96 96 64
128 96 64
128 96 64
96 96 64
96 96 64
128 96 64
128 96 64
128 96 64
128 96 64
128 96 64
128 96 64
128 96 64
160 128 64
160 128 64
128 96 64
128 128 64
160 128 64
160 128 64
96 96 64
160 128 64
128 96 64
128 96 64
128 96 64
128 128 64
160 128 64
160 128 64
128 96 64
160 128 64
128 128 64
96 64 64
64 64 64
64 64 0
128 96 64
96 96 64
96 64 64
96 96 64
96 64 64
96 64 64
128 96 64
64 64 0
96 64 64
64 64 64
96 96 64
128 96 64
96 64 64
96 64 64
64 64 64
96 64 64
128 96 64
128 96 64
96 64 64
96 64 64
128 128 64
128 128 64
128 96 64
128 96 64
96 64 64
128 96 64
96 64 64
96 96 64
128 128 64
96 96 64
96 96 64
96 64 64
128 96 64
96 64 64
128 96 64
96 64 64
128 96 64
128 96 64
96 96 64
128 96 64
128 128 64
96 96 64
128 96 64
128 96 64
96 96 64
128 96 64
128 128 64
128 96 64
128 96 64
128 96 64
128 128 64
128 96 64
128 96 64
128 96 64
128 96 64
128 96 64
160 128 64
96 96 64
96 96 64
128 128 64
128 128 64
128 96 64
160 128 64
128 96 64
128 96 64
160 128 64
128 96 64
192 160 128
128 96 64
128 96 64
128 128 64
160 128 64
160 128 64
192 160 128
160 128 64
128 128 64
160 128 64
96 96 64
96 64 64
96 64 64
96 64 64
64 64 64
64 64 0
96 64 64
64 64 64
96 64 64
64 64 64
96 96 64
64 64 64
96 64 64
64 64 64
96 64 64
96 64 64
64 64 64
96 96 64
128 128 64
96 96 64
96 64 64
96 96 64
96 64 64
96 96 64
128 96 64
96 96 64
96 96 64
96 96 64
96 96 64
96 96 64
96 64 64
128 128 64
128 96 64
128 96 64
96 64 64
128 96 64
128 96 64
96 96 64
128 128 64
128 96 64
128 96 64
96 96 64
128 96 64
128 128 64
128 96 64
128 96 64
128 128 64
128 96 64
128 96 64
128 128 64
160 128 128
128 96 64
96 96 64
160 128 64
128 96 64
128 128 64
96 96 64
128 96 64
128 96 64
128 96 64
128 96 64
160 128 64
128 128 64
128 96 64
128 96 64
160 128 64
128 96 64
160 128 64
128 128 64
160 128 64
128 96 64
160 160 128
128 96 64
128 96 64
160 128 64
128 128 64
160 128 64
128 128 64
128 96 64
128 128 64
64 64 0
64 64 0
96 64 64
96 96 64
96 64 64
128 96 64
64 64 64
96 96 64
128 128 64
96 64 64
96 96 64
96 64 64
96 64 64
96 96 64
96 96 64
64 64 64
96 96 64
96 96 64
96 96 64
128 96 64
96 64 64
96 64 64
128 96 64
96 64 64
96 96 64
96 64 64
128 96 64
128 96 64
128 96 64
64 64 0
128 96 64
128 128 64
128 96 64
128 96 64
96 96 64
96 96 64
96 96 64
96 96 64
128 96 64
128 96 64
128 128 64
128 96 64
128 96 64
128 96 64
96 96 64
128 128 64
128 96 64
192 160 128
128 96 64
128 96 64
128 96 64
96 96 64
96 64 64
128 128 64
128 96 64
128 96 64
96 96 64
96 96 64
128 96 64
128 128 64
160 128 64
128 96 64
128 128 64
160 128 64
128 96 64
128 96 64
96 96 64
128 96 64
96 96 64
128 96 64
96 96 64
160 128 64
128 96 64
128 96 64
96 96 64
160 128 64
160 128 128
128 96 64
192 160 128
128 128 64
64 32 0
128 96 64
64 64 0
64 32 0
64 64 0
128 96 64
64 64 0
96 64 64
64 64 0
128 96 64
128 96 64
96 96 64
96 64 64
64 64 64
128 96 64
96 64 64
96 96 64
96 64 64
96 96 64
128 96 64
64 64 64
96 96 64
128 96 64
128 96 64
96 96 64
96 96 64
128 96 64
96 96 64
96 64 64
96 96 64
96 96 64
96 96 64
96 96 64
128 128 64
96 96 64
96 96 64
96 96 64
128 96 64
128 96 64
96 64 64
96 96 64
96 64 64
128 96 64
128 96 64
160 128 64
128 96 64
96 96 64
128 96 64
128 96 64
128 128 64
96 96 64
128 96 64
128 96 64
128 96 64
160 128 64
128 96 64
128 96 64
128 128 64
128 128 64
128 128 64
128 96 64
96 96 64
128 96 64
96 64 64
160 128 64
128 128 64
160 128 128
96 96 64
128 96 64
128 128 64
128 96 64
128 128 64
160 128 64
128 128 64
128 128 64
128 96 64
128 128 64
160 128 64
160 128 64
128 96 64
96 64 64
96 64 64
96 64 64
96 64 64
96 96 64
96 64 64
96 96 64
96 96 64
96 64 64
96 96 64
96 64 64
128 96 64
96 64 64
128 96 64
96 96 64
128 96 64
128 128 64
96 64 64
96 96 64
128 96 64
96 64 64
128 96 64
96 96 64
96 96 64
96 96 64
96 64 64
128 96 64
128 96 64
128 96 64
128 96 64
96 96 64
96 64 64
128 96 64
96 64 64
128 96 64
96 64 64
128 128 64
96 96 64
128 128 64
128 96 64
96 96 64
128 96 64
160 128 64
96 64 64
96 64 64
128 96 64
128 96 64
96 96 64
128 96 64
96 96 64
128 96 64
128 96 64
96 96 64
160 128 64
128 96 64
128 96 64
160 160 128
128 128 64
128 128 64
128 96 64
128 128 64
128 128 64
128 128 64
160 128 64
128 128 64
128 128 64
96 96 64
128 96 64
160 128 64
128 96 64
160 128 64
128 128 64
128 96 64
96 96 64
160 128 128
160 128 64
160 128 64
128 128 64
160 128 64
128 96 64
96 96 64
96 64 64
96 96 64
96 96 64
96 96 64
96 64 64
96 64 64
128 96 64
128 96 64
96 64 64
128 96 64
128 96 64
96 64 64
96 96 64
96 96 64
96 64 64
64 64 64
96 64 64
96 96 64
128 96 64
96 96 64
64 64 0
96 96 64
96 64 64
96 96 64
128 96 64
64 64 64
96 64 64
96 96 64
128 96 64
96 96 64
160 128 128
128 96 64
96 96 64
128 96 64
96 64 64
96 96 64
128 96 64
96 64 64
128 96 64
128 128 64
128 96 64
96 96 64
128 96 64
128 96 64
96 96 64
128 128 64
96 96 64
128 96 64
160 128 64
128 96 64
160 128 64
128 96 64
128 96 64
96 96 64
96 96 64
128 96 64
128 96 64
128 96 64
128 96 64
128 96 64
160 128 64
128 96 64
128 128 64
128 96 64
128 96 64
160 128 64
160 128 64
160 128 128
128 128 64
128 96 64
128 128 64
192 160 128
96 96 64
128 96 64
96 96 64
128 128 64
160 128 64
128 96 64
160 128 64
128 96 64
96 64 64
128 96 64
96 96 64
96 96 64
64 64 64
128 96 64
96 96 64
96 96 64
96 64 64
128 96 64
96 64 64
128 96 64
128 128 64
96 96 64
128 96 64
128 128 64
96 64 64
96 96 64
96 64 64
128 96 64
128 96 64
128 96 64
96 96 64
96 64 64
128 96 64
96 64 64
96 96 64
96 96 64
128 96 64
96 96 64
96 96 64
128 96 64
128 96 64
128 96 64
128 96 64
96 96 64
128 96 64
128 96 64
128 128 64
128 96 64
96 96 64
96 96 64
96 64 64
128 128 64
96 96 64
128 128 64
128 128 64
128 96 64
128 96 64
160 128 64
128 96 64
128 96 64
128 96 64
96 96 64
160 128 64
128 96 64
128 96 64
128 96 64
128 96 64
96 96 64
128 96 64
128 96 64
128 96 64
128 96 64
128 96 64
128 96 64
160 128 128
128 128 64
128 128 64
128 96 64
96 96 64
160 128 64
128 96 64
160 128 64
128 96 64
160 160 128
160 128 64
128 96 64
160 128 128
128 96 64
96 96 64
96 64 64
128 96 64
96 64 64
96 64 64
64 64 0
96 96 64
128 96 64
96 96 64
96 96 64
96 64 64
96 96 64
128 96 64
96 64 64
96 96 64
96 96 64
128 96 64
128 128 64
128 96 64
128 96 64
96 96 64
96 64 64
96 64 64
96 64 64
128 96 64
64 64 64
64 64 64
96 64 64
96 96 64
96 96 64
128 128 64
64 64 64
96 96 64
128 96 64
96 96 64
96 96 64
128 96 64
96 96 64
128 96 64
128 96 64
128 96 64
96 96 64
96 96 64
96 64 64
96 96 64
128 96 64
128 96 64
96 64 64
96 64 64
96 96 64
128 128 64
96 96 64
96 96 64
128 128 64
96 64 64
160 128 64
128 96 64
160 128 64
160 128 64
128 96 64
160 128 64
96 96 64
128 96 64
128 96 64
96 96 64
128 96 64
128 96 64
160 160 128
128 96 64
128 96 64
128 128 64
160 128 64
160 128 64
128 96 64
160 128 64
128 128 64
128 96 64
128 96 64
160 128 64
